<svg id="Layer_1" data-name="Layer 1" xmlns="http://www.w3.org/2000/svg" viewBox="0 0 2918.22 794.47"><defs><style>.cls-1{fill:#131313;}.cls-2{fill:#ffb93d;}</style></defs><title>SIMHALOGONWBK1E</title><path class="cls-1" d="M701.2,449.55s43.13-71.21,23.4-139.2c-25.38-87.43-54.33-105.85-54.33-105.85C721.15,22,603.13,60.38,579,73.79c-54.39-43-168.72-42-194.58-33.78l-.18-.06v91.81l.18-.07,1.8.68c9.48-3.62,40-15.17,64-23.06h41.91c25.95,21.42,84.48,81.17,84.48,96,0,17.94-12,87.73-27.91,95.71s-41.87,14-35.9,31.9,25.93,41.88,8,67.8S490.93,456.55,465,444.59s-65.81-21.94-67.8-31.91,4-37.88,4-37.88,33.9-8,41.88-21.94c6.43-11.26-39-16-56.84-17.45l-1.78.15h-.18V442.49h.44l2.53,0h6v0c12.74.13,29.66.93,35.23,4.1,9.3,5.32,53.17,14.63,51.84,23.93s-29.24,59.81-47.86,61.15c-13,.93-32.35-.08-42.91-.78l-5.07.21h-.18V774.45c.07-.09.12-.18.18-.27l.26.38v-.76c2.42-3.75,4.84-7.49,7.32-11.12,26.46-38.68,57.61-70.76,112.83-92.86a263.08,263.08,0,0,0,87.35-56.92c23.11,34.21,15.41,89.3,15.41,89.3,145.62-187.73,33.92-338.33,33.92-338.33C700,384,701.2,449.55,701.2,449.55Z" transform="translate(-45.3 -22.03)"/><path class="cls-1" d="M497,599.85,385.3,701.24l-2.77-2.51V811.64l.43.73c.92,1.57,1.69,3,2.34,4.13.65-1.18,1.42-2.56,2.34-4.13,12.63-21.74,50.92-79.23,114.63-103.74,91.23-35.09,98.25-103.52,98.25-103.52Z" transform="translate(-45.3 -22.03)"/><path class="cls-1" d="M69,449.55S29.29,381.13,52.68,295.74c15.2-67.26,47.21-91.24,47.21-91.24C49,22,167,60.38,191.12,73.79c54.56-43,168.72-42,194.58-33.78l.17-.06v91.81l-.17-.07-1.8.68c-9.48-3.62-40-15.17-64-23.06H278c-26,21.42-84.48,81.17-84.48,96,0,17.94,12,87.73,27.9,95.71s41.88,14,35.9,31.9-25.92,41.88-8,67.8,29.91,55.83,55.83,43.87S371,422.65,373,412.68s-4-37.88-4-37.88-33.9-8-41.88-21.94c-6.43-11.26,39-16,56.83-17.45l1.79.15h.17V442.49h-.43l-2.53,0h-6v0c-12.74.13-29.66.93-35.23,4.1-9.3,5.32-53.17,14.63-51.84,23.93s29.24,59.81,47.85,61.15c13,.93,32.36-.08,42.92-.78l5.07.21h.17V774.45l-.17-.27-.26.38v-.76c-2.42-3.75-4.84-7.49-7.32-11.12-26.47-38.68-57.61-70.76-112.83-92.86a263.08,263.08,0,0,1-87.35-56.92c-23.11,34.21-15.41,89.3-15.41,89.3C16.9,514.47,128.61,363.87,128.61,363.87,70.12,384,69,449.55,69,449.55Z" transform="translate(-45.3 -22.03)"/><path class="cls-1" d="M273.15,599.85,384.86,701.24l2.77-2.51V811.64l-.43.73q-1.38,2.36-2.34,4.13-1-1.77-2.34-4.13c-12.64-21.74-50.92-79.23-114.63-103.74-91.24-35.09-98.25-103.52-98.25-103.52Z" transform="translate(-45.3 -22.03)"/><polygon class="cls-1" points="486.02 207.63 408.22 207.63 390.27 214.61 390.27 268.45 442.11 346.21 447.11 398.06 454.08 344.22 408.22 265.46 417.19 245.51 442.64 242.71 486.02 207.63"/><polygon class="cls-1" points="193.75 207.63 271.56 207.63 289.51 214.61 289.51 268.45 237.66 346.21 232.67 398.06 225.69 344.22 271.56 265.46 262.58 245.51 237.13 242.71 193.75 207.63"/><path class="cls-1" d="M191.12,73.79S242.17,22,287.79,22,385.7,40,385.7,40" transform="translate(-45.3 -22.03)"/><path class="cls-1" d="M580.45,73.79S529.4,22,483.78,22s-97.91,18-97.91,18" transform="translate(-45.3 -22.03)"/><polygon class="cls-2" points="461.65 217.56 412.52 217.56 403.75 232.47 416.03 235.98 443.81 232.18 461.65 217.56"/><polygon class="cls-2" points="218.13 217.56 267.25 217.56 276.02 232.47 263.74 235.98 235.97 232.18 218.13 217.56"/><path class="cls-2" d="M133.24,192.22s-93.58,69-73.69,198.85c0,0-5.86-64.34,36.25-118.14,0,0-19.87,40.93-18.71,92.4,0,0,14-92.4,90.07-153.22,0,0-33.92,14-55,43.27,0,0,8.19-43.27,77.2-94.74,0,0-50.3,22.22-86.56,84.21C102.82,244.85,113.35,214.45,133.24,192.22Z" transform="translate(-45.3 -22.03)"/><path class="cls-2" d="M170.66,340.77s-138,100.59-28.07,312.3c0,0-43.27-100.59-16.37-159.07,0,0-4.68,59.65,19.88,108.78,0,0-32.75-104.1,65.5-215.22,0,0-51.46,24.56-71.34,92.4,0,0-2.34-64.33,52.63-124,0,0-55,30.41-71.35,113.45C121.54,469.43,116.86,400.42,170.66,340.77Z" transform="translate(-45.3 -22.03)"/><path class="cls-2" d="M635.18,192.22s93.58,69,73.69,198.85c0,0,5.85-64.34-36.25-118.14,0,0,19.87,40.93,18.71,92.4,0,0-14-92.4-90.07-153.22,0,0,33.92,14,55,43.27,0,0-8.19-43.27-77.2-94.74,0,0,50.3,22.22,86.56,84.21C665.6,244.85,655.07,214.45,635.18,192.22Z" transform="translate(-45.3 -22.03)"/><path class="cls-2" d="M597.75,340.77s138,100.59,28.08,312.3c0,0,43.27-100.59,16.37-159.07,0,0,4.68,59.65-19.88,108.78,0,0,32.75-104.1-65.5-215.22,0,0,51.45,24.56,71.34,92.4,0,0,2.34-64.33-52.63-124,0,0,55,30.41,71.35,113.45C646.88,469.43,651.56,400.42,597.75,340.77Z" transform="translate(-45.3 -22.03)"/><path class="cls-2" d="M386.34,793.05c-.27,1-.45,1.56-.45,1.56A5.87,5.87,0,0,0,386.34,793.05Z" transform="translate(-45.3 -22.03)"/><path class="cls-2" d="M382.53,794.61s-.19-.56-.45-1.56A5.87,5.87,0,0,0,382.53,794.61Z" transform="translate(-45.3 -22.03)"/><path class="cls-2" d="M558,491.66c29.24,140.36-92.4,194.17-92.4,194.17C568.52,619.15,536.93,542,536.93,542c9.35,67.84-52.64,107.61-52.64,107.61,59.66-59.66,38.6-145.05,38.6-145.05s7,78.38-78.36,149.72c-36.77,30.73-53.34,61-60.32,85.53-7-24.53-23.56-54.8-60.32-85.53-85.38-71.34-78.36-149.72-78.36-149.72s-21.06,85.39,38.6,145.05c0,0-62-39.77-52.64-107.61,0,0-31.59,77.19,71.35,143.87,0,0-121.64-53.81-92.4-194.17,0,0-48,118.14,71.34,196.51,61.67,40.5,87.36,67.55,97.83,84.25a58.86,58.86,0,0,1,4.6,8.72,57.92,57.92,0,0,1,4.6-8.72c10.46-16.7,36.16-43.75,97.83-84.25C605.94,609.8,558,491.66,558,491.66Z" transform="translate(-45.3 -22.03)"/><path d="M935.88,483.67q-14,9.87-35.64,15.43t-53,5.57A546.07,546.07,0,0,1,784,501V463.07a260.07,260.07,0,0,0,57.42,6.44q28.9,0,43.36-3.22t23.24-8.5q16.22-9.77,16.21-25.39,0-12.11-6.25-18.75-10-10.35-28.71-18.94l-50-22.85q-25.78-12.12-36.52-22.47-23.06-22.26-23-51.56,0-30.07,26.17-48.63,28.71-20.31,81.64-20.31,34.19,0,62.5,2.73v37.31q-24-5.48-53.61-5.47t-43,3q-13.38,3-21,7.72-13.86,8.6-13.86,22.66,0,13.67,8.79,22.65,7.8,7.62,28.51,17.58l51.37,24.41q25.59,12.12,35.84,22.86t15.14,21.58q4.88,10.83,4.88,26a63.37,63.37,0,0,1-6.64,28.52Q949.84,473.81,935.88,483.67Z" transform="translate(-45.3 -22.03)"/><path d="M1014.69,230.84h39.06V502.71h-39.06Z" transform="translate(-45.3 -22.03)"/><path d="M1112.54,230.84h25l96.88,111.33,96.48-111.33h25V502.71h-39.06v-207l-11.52,15.63-70.9,82.62-70.9-82.43-11.91-15.62V502.71h-39.07Z" transform="translate(-45.3 -22.03)"/><path d="M1414.3,230.84h39.06V338.26h128.52V230.84h39.06V502.71h-39.06V372.64H1453.36V502.71H1414.3Z" transform="translate(-45.3 -22.03)"/><path d="M1770.94,230.84h26.76l114.65,271.87h-40.63l-27.54-68.35h-120.7l-27.34,68.35h-39.85Zm60.74,172.27L1784,284l-47.85,119.15Z" transform="translate(-45.3 -22.03)"/><path d="M2080.9,230.84H2120v237.5h116.41v34.37H2080.9Z" transform="translate(-45.3 -22.03)"/><path d="M2371.14,230.84h26.75l114.65,271.87h-40.62l-27.54-68.35h-120.7l-27.35,68.35h-39.84Zm60.74,172.27L2384.22,284l-47.85,119.15Z" transform="translate(-45.3 -22.03)"/><path d="M2551,230.84h68.55q67.39,0,86.92,38.87a65.39,65.39,0,0,1,7.22,29.1q0,14.46-3,22.95a61.58,61.58,0,0,1-8.11,15.52,82.53,82.53,0,0,1-25.39,22.66v.78q29.29,8.4,43.17,29.49a63.28,63.28,0,0,1,10.54,35.55q0,19.53-7.71,33.79a68.79,68.79,0,0,1-21.39,23.83q-27.93,19.33-74.61,19.33H2551Zm76,118.55q31.44,0,42.38-24.8a50.06,50.06,0,0,0,3.71-19.63,57.58,57.58,0,0,0-2.73-18.75,33.23,33.23,0,0,0-8.79-13.57q-12.9-12.12-38.87-12.11h-32.62v88.86Zm63.28,77.15q0-47.46-57-47.46h-43.17V473h37.11q43,0,58-26A40.31,40.31,0,0,0,2690.28,426.54Z" transform="translate(-45.3 -22.03)"/><path d="M2936.27,483.67q-14,9.87-35.64,15.43t-53,5.57a546.07,546.07,0,0,1-63.18-3.71V463.07a260.07,260.07,0,0,0,57.42,6.44q28.9,0,43.36-3.22t23.24-8.5q16.21-9.77,16.21-25.39,0-12.11-6.25-18.75-10-10.35-28.71-18.94l-50-22.85q-25.79-12.12-36.52-22.47-23.05-22.26-23.05-51.56,0-30.07,26.17-48.63,28.71-20.31,81.64-20.31,34.18,0,62.5,2.73v37.31q-24-5.48-53.61-5.47t-43,3q-13.38,3-21,7.72Q2819,282.8,2819,296.86q0,13.67,8.79,22.65,7.8,7.62,28.51,17.58l51.37,24.41q25.59,12.12,35.84,22.86t15.14,21.58q4.88,10.83,4.88,26a63.37,63.37,0,0,1-6.64,28.52Q2950.23,473.81,2936.27,483.67Z" transform="translate(-45.3 -22.03)"/></svg>