<?xml version="1.0" encoding="utf-8"?>
<!-- Generator: Adobe Illustrator 23.0.1, SVG Export Plug-In . SVG Version: 6.00 Build 0)  -->
<svg version="1.1" xmlns="http://www.w3.org/2000/svg" xmlns:xlink="http://www.w3.org/1999/xlink" x="0px" y="0px"
	 viewBox="0 0 3454.48 841.69" style="enable-background:new 0 0 3454.48 841.69;" xml:space="preserve">
<style type="text/css">
	.st0{fill:#FFFFFF;}
	.st1{fill:#131313;}
	.st2{fill:#FFB93D;}
	.st3{fill:none;}
</style>
<g id="Layer_4">
	<ellipse class="st0" cx="374.57" cy="318.02" rx="228.79" ry="244.24"/>
</g>
<g id="Layer_3">
	<g>
		<path class="st1" d="M375.33,123.45L375.33,123.45c-13.95,0-25.26-11.31-25.26-25.26V66.35c0-13.95,11.31-25.26,25.26-25.26h0
			c13.95,0,25.26,11.31,25.26,25.26v31.84C400.59,112.14,389.28,123.45,375.33,123.45z"/>
		
			<rect x="375.87" y="91.09" transform="matrix(0.7668 0.6419 -0.6419 0.7668 160.5048 -219.6947)" class="st1" width="13.48" height="39.91"/>
	</g>
	<rect x="365.22" y="337.3" class="st1" width="19.57" height="102.74"/>
	<g>
		<rect x="365.22" y="532.8" class="st1" width="16.18" height="178.52"/>
		<rect x="370.23" y="690.31" class="st1" width="7.55" height="35.73"/>
		<rect x="372.81" y="726.04" class="st1" width="3.34" height="8.34"/>
		<rect x="372.81" y="734.38" class="st1" width="4.97" height="4.97"/>
	</g>
	<g>
		<path class="st1" d="M377.63,802.11h-6.29c-3.1,0-5.61-2.51-5.61-5.61v-9.76c0-3.1,2.51-5.61,5.61-5.61h6.29
			c3.1,0,5.61,2.51,5.61,5.61v9.76C383.24,799.6,380.73,802.11,377.63,802.11z"/>
		<rect x="372.67" y="802.11" class="st1" width="4.24" height="8.9"/>
		<path class="st1" d="M375.33,814.46L375.33,814.46c-0.47,0-0.84-0.38-0.84-0.84v-2.77c0-0.47,0.38-0.84,0.84-0.84h0
			c0.47,0,0.84,0.38,0.84,0.84v2.77C376.17,814.09,375.79,814.46,375.33,814.46z"/>
	</g>
</g>
<g id="Layer_1">
	<path class="st1" d="M691.48,449.55c0,0,43.13-71.21,23.4-139.19c-25.38-87.43-54.33-105.85-54.33-105.85
		c50.88-182.47-67.14-144.12-91.24-130.71C514.93,30.8,400.6,31.82,374.74,40.01c-0.05-0.02-0.12-0.04-0.18-0.06v91.81
		c0.06-0.02,0.12-0.04,0.18-0.07c0.66,0.25,1.27,0.48,1.8,0.68c9.48-3.63,39.98-15.18,64.03-23.07h41.9
		c25.95,21.42,84.48,81.17,84.48,96c0,17.95-11.96,87.74-27.91,95.71c-15.95,7.97-41.88,13.96-35.9,31.9
		c5.98,17.95,25.93,41.88,7.98,67.8c-17.94,25.92-29.91,55.83-55.83,43.87c-25.92-11.96-65.81-21.93-67.8-31.9
		c-1.99-9.97,3.99-37.89,3.99-37.89s33.9-7.97,41.88-21.94c6.43-11.26-39-16.03-56.84-17.45c-0.54,0.04-1.17,0.1-1.78,0.15
		c-0.06,0-0.12-0.01-0.18-0.01v106.94c0.06,0,0.12,0,0.18,0c0.09,0,0.17,0,0.25,0v0c0.84-0.01,1.69-0.02,2.54-0.02v-0.01
		c0.73,0,1.59,0,2.38,0c1.2,0,2.41-0.01,3.6,0v0.02c12.74,0.13,29.66,0.93,35.23,4.1c9.3,5.31,53.18,14.62,51.85,23.93
		c-1.34,9.3-29.24,59.82-47.86,61.15c-12.99,0.93-32.36-0.08-42.92-0.78c-1.66,0.07-3.36,0.14-5.06,0.21c-0.06,0-0.12,0-0.18-0.01
		v243.37c0.06-0.09,0.12-0.18,0.18-0.27c0.09,0.13,0.17,0.25,0.25,0.38v-0.76c2.42-3.75,4.85-7.49,7.33-11.12
		c26.46-38.68,57.6-70.76,112.83-92.86c36.5-14.6,65.09-35.05,87.35-56.92c23.11,34.21,15.41,89.3,15.41,89.3
		c145.63-187.73,33.92-338.33,33.92-338.33C690.32,384.04,691.48,449.55,691.48,449.55z"/>
	<path class="st1" d="M487.29,599.85L375.58,701.24l-2.77-2.51v112.91c0.13,0.23,0.3,0.5,0.43,0.72c0.92,1.58,1.69,2.95,2.34,4.13
		c0.65-1.17,1.43-2.55,2.34-4.13c12.63-21.74,50.92-79.23,114.63-103.74c91.24-35.09,98.25-103.52,98.25-103.52L487.29,599.85z"/>
	<path class="st1" d="M59.24,449.55c0,0-39.67-68.42-16.28-153.81c15.2-67.25,47.21-91.24,47.21-91.24
		C39.29,22.03,157.31,60.38,181.4,73.79c54.55-42.99,168.71-41.96,194.57-33.78c0.05-0.02,0.12-0.04,0.18-0.06v91.81
		c-0.06-0.02-0.12-0.04-0.18-0.07c-0.66,0.25-1.28,0.48-1.8,0.68c-9.48-3.63-39.98-15.18-64.03-23.07h-41.9
		c-25.95,21.42-84.48,81.17-84.48,96c0,17.95,11.96,87.74,27.91,95.71c15.96,7.97,41.88,13.96,35.9,31.9
		c-5.98,17.95-25.93,41.88-7.98,67.8c17.94,25.92,29.91,55.83,55.83,43.87c25.92-11.96,65.81-21.93,67.8-31.9
		c1.99-9.97-3.99-37.89-3.99-37.89s-33.9-7.97-41.88-21.94c-6.43-11.26,39-16.03,56.84-17.45c0.54,0.04,1.17,0.1,1.78,0.15
		c0.06,0,0.12-0.01,0.18-0.01v106.94c-0.06,0-0.12,0-0.18,0c-0.09,0-0.17,0-0.25,0v0c-0.84-0.01-1.69-0.02-2.54-0.02v-0.01
		c-0.73,0-1.59,0-2.38,0c-1.2,0-2.41-0.01-3.6,0v0.02c-12.74,0.13-29.66,0.93-35.23,4.1c-9.3,5.31-53.18,14.62-51.85,23.93
		c1.34,9.3,29.24,59.82,47.86,61.15c12.99,0.93,32.36-0.08,42.92-0.78c1.66,0.07,3.36,0.14,5.06,0.21c0.06,0,0.12,0,0.18-0.01
		v243.37c-0.06-0.09-0.12-0.18-0.18-0.27c-0.09,0.13-0.17,0.25-0.25,0.38v-0.76c-2.42-3.75-4.85-7.49-7.33-11.12
		c-26.46-38.68-57.6-70.76-112.83-92.86c-36.49-14.6-65.09-35.05-87.35-56.92c-23.11,34.21-15.41,89.3-15.41,89.3
		C7.18,514.47,118.89,363.87,118.89,363.87C60.4,384.04,59.24,449.55,59.24,449.55z"/>
	<path class="st1" d="M263.43,599.85l111.71,101.39l2.77-2.51v112.91c-0.13,0.23-0.3,0.5-0.43,0.72c-0.92,1.58-1.69,2.95-2.34,4.13
		c-0.65-1.17-1.43-2.55-2.34-4.13c-12.63-21.74-50.91-79.23-114.63-103.74c-91.24-35.09-98.25-103.52-98.25-103.52L263.43,599.85z"
		/>
	<polygon class="st1" points="521.6,229.66 443.79,229.66 425.84,236.64 425.84,290.48 477.68,368.24 482.68,420.09 489.66,366.25 
		443.79,287.49 452.76,267.54 478.22,264.74 	"/>
	<polygon class="st1" points="229.33,229.66 307.13,229.66 325.08,236.64 325.08,290.48 273.24,368.24 268.25,420.09 261.27,366.25 
		307.13,287.49 298.16,267.54 272.71,264.74 	"/>
	<path class="st1" d="M181.4,73.79c0,0,51.05-51.76,96.66-51.76s97.91,17.98,97.91,17.98"/>
	<path class="st1" d="M570.73,73.79c0,0-51.05-51.76-96.66-51.76s-97.91,17.98-97.91,17.98"/>
	<polygon class="st2" points="497.22,239.59 448.1,239.59 439.32,254.5 451.61,258.01 479.38,254.21 	"/>
	<polygon class="st2" points="253.7,239.59 302.83,239.59 311.6,254.5 299.32,258.01 271.54,254.21 	"/>
	<path class="st2" d="M123.52,192.22c0,0-93.58,69.01-73.69,198.85c0,0-5.85-64.33,36.26-118.14c0,0-19.88,40.94-18.71,92.4
		c0,0,14.04-92.4,90.06-153.23c0,0-33.92,14.04-54.97,43.28c0,0,8.19-43.28,77.2-94.74c0,0-50.31,22.22-86.56,84.22
		C93.1,244.85,103.63,214.45,123.52,192.22z"/>
	<path class="st2" d="M160.95,340.77c0,0-138.02,100.59-28.07,312.3c0,0-43.27-100.59-16.37-159.08c0,0-4.68,59.65,19.88,108.78
		c0,0-32.75-104.1,65.5-215.22c0,0-51.46,24.56-71.35,92.4c0,0-2.34-64.33,52.64-123.98c0,0-54.98,30.41-71.35,113.46
		C111.82,469.43,107.14,400.42,160.95,340.77z"/>
	<path class="st2" d="M625.46,192.22c0,0,93.58,69.01,73.69,198.85c0,0,5.85-64.33-36.26-118.14c0,0,19.88,40.94,18.71,92.4
		c0,0-14.04-92.4-90.06-153.23c0,0,33.92,14.04,54.97,43.28c0,0-8.19-43.28-77.2-94.74c0,0,50.31,22.22,86.56,84.22
		C655.88,244.85,645.35,214.45,625.46,192.22z"/>
	<path class="st2" d="M588.03,340.77c0,0,138.02,100.59,28.07,312.3c0,0,43.27-100.59,16.37-159.08c0,0,4.68,59.65-19.88,108.78
		c0,0,32.75-104.1-65.5-215.22c0,0,51.46,24.56,71.35,92.4c0,0,2.34-64.33-52.64-123.98c0,0,54.98,30.41,71.35,113.46
		C637.16,469.43,641.84,400.42,588.03,340.77z"/>
	<path class="st2" d="M548.26,491.66c29.24,140.36-92.4,194.17-92.4,194.17c102.93-66.67,71.35-143.87,71.35-143.87
		c9.36,67.84-52.64,107.61-52.64,107.61c59.65-59.65,38.6-145.04,38.6-145.04s7.02,78.37-78.36,149.72
		c-36.76,30.72-53.33,60.99-60.32,85.53c-6.98-24.53-23.56-54.8-60.32-85.53c-85.38-71.35-78.36-149.72-78.36-149.72
		s-21.05,85.39,38.6,145.04c0,0-61.99-39.77-52.64-107.61c0,0-31.59,77.2,71.35,143.87c0,0-121.64-53.8-92.4-194.17
		c0,0-47.96,118.14,71.35,196.51c61.67,40.51,87.36,67.55,97.83,84.25c2.07,3.3,3.56,6.21,4.6,8.72c1.03-2.51,2.53-5.42,4.6-8.72
		c10.47-16.7,36.16-43.74,97.83-84.25C596.22,609.8,548.26,491.66,548.26,491.66z"/>
</g>
<g id="Layer_2">
	<g>
		<rect x="873.1" y="206.09" class="st3" width="2492.22" height="416"/>
		<path class="st0" d="M1074.71,242.89l-15.6,35.6c-10.94-4-21.8-7.2-32.6-9.6c-10.8-2.4-21.14-3.6-31-3.6
			c-16.8,0-30.2,3.47-40.2,10.4c-10,6.94-15,15.74-15,26.4c0,9.07,3.6,16.34,10.8,21.8c7.2,5.47,16.13,10.4,26.8,14.8
			c10.66,4.4,22.26,8.8,34.8,13.2c12.53,4.4,24.13,10.07,34.8,17c10.66,6.94,19.6,15.67,26.8,26.2c7.2,10.54,10.8,24.07,10.8,40.6
			c0,12.8-2.34,24.34-7,34.6c-4.67,10.27-11.6,19.14-20.8,26.6c-9.2,7.47-20.67,13.2-34.4,17.2c-13.74,4-29.8,6-48.2,6
			c-11.74,0-22.34-0.8-31.8-2.4c-9.47-1.6-18-3.66-25.6-6.2c-7.6-2.53-14.27-5.26-20-8.2c-5.74-2.93-10.6-5.6-14.6-8l19.2-38
			c10.66,6.14,22.53,11.07,35.6,14.8c13.06,3.74,24.93,5.6,35.6,5.6c5.33,0,11.93-0.66,19.8-2c7.86-1.33,15.4-3.66,22.6-7
			c7.2-3.33,13.4-7.8,18.6-13.4c5.2-5.6,7.8-12.66,7.8-21.2c0-7.73-2.07-14.33-6.2-19.8c-4.14-5.46-9.6-10.26-16.4-14.4
			c-6.8-4.13-14.54-7.86-23.2-11.2c-8.67-3.33-17.54-6.8-26.6-10.4c-9.07-3.6-17.94-7.4-26.6-11.4c-8.67-4-16.4-8.86-23.2-14.6
			c-6.8-5.73-12.27-12.4-16.4-20c-4.14-7.6-6.2-16.73-6.2-27.4c0-9.86,2-19.6,6-29.2c4-9.6,10-18.13,18-25.6
			c8-7.46,17.93-13.46,29.8-18c11.86-4.53,25.66-6.8,41.4-6.8c9.6,0,19,0.8,28.2,2.4c9.2,1.6,17.53,3.4,25,5.4
			c7.46,2,13.8,3.94,19,5.8C1069.71,240.76,1073.11,242.09,1074.71,242.89z"/>
		<path class="st0" d="M1134.7,226.89h43.6v290h-43.6V226.89z"/>
		<path class="st0" d="M1249.5,214.09c2.4,3.74,7.4,10.87,15,21.4c7.6,10.54,16.4,22.74,26.4,36.6c10,13.87,20.6,28.6,31.8,44.2
			s21.73,30.27,31.6,44c9.86,13.74,18.46,25.67,25.8,35.8c7.33,10.14,12.2,16.8,14.6,20c0.8-1.33,3.33-4.93,7.6-10.8
			c4.26-5.86,9.53-13.2,15.8-22c6.26-8.8,13.4-18.73,21.4-29.8c8-11.06,16.2-22.4,24.6-34c8.4-11.6,16.66-23.13,24.8-34.6
			c8.13-11.46,15.66-21.93,22.6-31.4c6.93-9.46,12.86-17.73,17.8-24.8c4.93-7.06,8.46-11.93,10.6-14.6v302.8h-46.4v-162.4
			c0-2.13,0.2-4.4,0.6-6.8c0.4-2.4,0.6-4.13,0.6-5.2c-2.4,3.2-6.2,8.6-11.4,16.2c-5.2,7.6-11.2,16.27-18,26
			c-6.8,9.74-13.94,20-21.4,30.8c-7.47,10.8-14.54,21-21.2,30.6c-6.67,9.6-12.54,18.07-17.6,25.4c-5.07,7.34-8.54,12.47-10.4,15.4
			c-1.87-2.4-5.54-7.4-11-15c-5.47-7.6-11.87-16.46-19.2-26.6c-7.34-10.13-15.07-20.93-23.2-32.4c-8.14-11.46-15.67-22.13-22.6-32
			c-6.94-9.86-12.94-18.33-18-25.4c-5.07-7.06-8-11.4-8.8-13c0,1.07,0.2,2.8,0.6,5.2c0.4,2.4,0.6,4.67,0.6,6.8v162.4h-43.6V214.09z"
			/>
		<path class="st0" d="M1611.09,516.89v-290h43.6v123.2h145.2v-123.2h44c0,3.47,0,9.94,0,19.4c0,9.47,0,20.74,0,33.8
			c0,13.07,0,27.54,0,43.4c0,15.87-0.07,32-0.2,48.4c-0.14,16.4-0.2,32.54-0.2,48.4c0,15.87,0,30.34,0,43.4c0,13.07,0,24.34,0,33.8
			c0,9.47,0,15.94,0,19.4h-43.6v-125.2h-145.2v125.2H1611.09z"/>
		<path class="st0" d="M2094.69,516.89c-1.34-2.93-3.2-7.2-5.6-12.8c-2.4-5.6-5.14-12.06-8.2-19.4c-3.07-7.33-6.4-15.33-10-24
			c-3.6-8.66-7.27-17.66-11-27h-102.4l-34.4,83.2h-43.2l129.2-303.6c1.6,3.74,4.46,10.54,8.6,20.4c4.13,9.87,9.06,21.67,14.8,35.4
			c5.73,13.74,12.13,28.94,19.2,45.6c7.06,16.67,14.26,33.54,21.6,50.6c7.33,17.07,14.53,33.87,21.6,50.4
			c7.06,16.54,13.53,31.74,19.4,45.6c5.86,13.87,10.86,25.67,15,35.4c4.13,9.74,7,16.47,8.6,20.2H2094.69z M1972.69,396.89h72.4
			c-3.74-8.8-7.27-17.26-10.6-25.4c-3.34-8.13-6.4-15.6-9.2-22.4c-2.8-6.8-5.27-12.73-7.4-17.8c-2.14-5.06-3.74-9.06-4.8-12
			c-0.27-0.53-0.87-2.4-1.8-5.6c-0.94-3.2-1.67-6.13-2.2-8.8c-0.54,2.67-1.34,5.6-2.4,8.8c-1.07,3.2-1.74,5.07-2,5.6L1972.69,396.89
			z"/>
		<path class="st0" d="M2265.88,516.89v-290h44v248.4h144v41.6H2265.88z"/>
		<path class="st0" d="M2673.88,516.89c-1.34-2.93-3.2-7.2-5.6-12.8c-2.4-5.6-5.14-12.06-8.2-19.4c-3.07-7.33-6.4-15.33-10-24
			c-3.6-8.66-7.27-17.66-11-27h-102.4l-34.4,83.2h-43.2l129.2-303.6c1.6,3.74,4.46,10.54,8.6,20.4c4.13,9.87,9.06,21.67,14.8,35.4
			c5.73,13.74,12.13,28.94,19.2,45.6c7.06,16.67,14.26,33.54,21.6,50.6c7.33,17.07,14.53,33.87,21.6,50.4
			c7.06,16.54,13.53,31.74,19.4,45.6c5.86,13.87,10.86,25.67,15,35.4c4.13,9.74,7,16.47,8.6,20.2H2673.88z M2551.88,396.89h72.4
			c-3.74-8.8-7.27-17.26-10.6-25.4c-3.34-8.13-6.4-15.6-9.2-22.4c-2.8-6.8-5.27-12.73-7.4-17.8c-2.14-5.06-3.74-9.06-4.8-12
			c-0.27-0.53-0.87-2.4-1.8-5.6c-0.94-3.2-1.67-6.13-2.2-8.8c-0.54,2.67-1.34,5.6-2.4,8.8c-1.07,3.2-1.74,5.07-2,5.6L2551.88,396.89
			z"/>
		<path class="st0" d="M2753.08,516.89v-290h76.8c14.13,0,26.93,1.4,38.4,4.2c11.46,2.8,21.2,7.2,29.2,13.2s14.2,13.74,18.6,23.2
			c4.4,9.47,6.6,21,6.6,34.6c0,7.47-0.74,14.8-2.2,22c-1.47,7.2-3.87,13.8-7.2,19.8c-3.34,6-7.74,11.27-13.2,15.8
			c-5.47,4.54-12.2,8-20.2,10.4c6.93,1.34,13.8,3.6,20.6,6.8s12.86,7.54,18.2,13c5.33,5.47,9.66,12.2,13,20.2c3.33,8,5,17.47,5,28.4
			c0,13.87-2.67,25.74-8,35.6c-5.34,9.87-12.4,18-21.2,24.4c-8.8,6.4-18.94,11.07-30.4,14c-11.47,2.94-23.34,4.4-35.6,4.4H2753.08z
			 M2797.08,266.49v85.6h39.2c14.4,0,25.2-4.26,32.4-12.8c7.2-8.53,10.8-18.93,10.8-31.2c0-14.4-4.34-24.93-13-31.6
			c-8.67-6.66-20.2-10-34.6-10H2797.08z M2797.08,389.29v88h40.8c7.73,0,15-0.93,21.8-2.8c6.8-1.86,12.73-4.6,17.8-8.2
			c5.06-3.6,9.06-8.2,12-13.8c2.93-5.6,4.4-12.13,4.4-19.6c0-8.26-1.74-15.13-5.2-20.6c-3.47-5.46-8.07-9.93-13.8-13.4
			c-5.74-3.46-12.27-5.93-19.6-7.4c-7.34-1.46-14.87-2.2-22.6-2.2H2797.08z"/>
		<path class="st0" d="M3156.68,242.89l-15.6,35.6c-10.94-4-21.8-7.2-32.6-9.6c-10.8-2.4-21.14-3.6-31-3.6
			c-16.8,0-30.2,3.47-40.2,10.4c-10,6.94-15,15.74-15,26.4c0,9.07,3.6,16.34,10.8,21.8c7.2,5.47,16.13,10.4,26.8,14.8
			c10.66,4.4,22.26,8.8,34.8,13.2c12.53,4.4,24.13,10.07,34.8,17c10.66,6.94,19.6,15.67,26.8,26.2c7.2,10.54,10.8,24.07,10.8,40.6
			c0,12.8-2.34,24.34-7,34.6c-4.67,10.27-11.6,19.14-20.8,26.6c-9.2,7.47-20.67,13.2-34.4,17.2c-13.74,4-29.8,6-48.2,6
			c-11.74,0-22.34-0.8-31.8-2.4c-9.47-1.6-18-3.66-25.6-6.2c-7.6-2.53-14.27-5.26-20-8.2c-5.74-2.93-10.6-5.6-14.6-8l19.2-38
			c10.66,6.14,22.53,11.07,35.6,14.8c13.06,3.74,24.93,5.6,35.6,5.6c5.33,0,11.93-0.66,19.8-2c7.86-1.33,15.4-3.66,22.6-7
			c7.2-3.33,13.4-7.8,18.6-13.4c5.2-5.6,7.8-12.66,7.8-21.2c0-7.73-2.07-14.33-6.2-19.8c-4.14-5.46-9.6-10.26-16.4-14.4
			c-6.8-4.13-14.54-7.86-23.2-11.2c-8.67-3.33-17.54-6.8-26.6-10.4c-9.07-3.6-17.94-7.4-26.6-11.4c-8.67-4-16.4-8.86-23.2-14.6
			c-6.8-5.73-12.27-12.4-16.4-20c-4.14-7.6-6.2-16.73-6.2-27.4c0-9.86,2-19.6,6-29.2c4-9.6,10-18.13,18-25.6
			c8-7.46,17.93-13.46,29.8-18c11.86-4.53,25.66-6.8,41.4-6.8c9.6,0,19,0.8,28.2,2.4c9.2,1.6,17.53,3.4,25,5.4
			c7.46,2,13.8,3.94,19,5.8C3151.68,240.76,3155.08,242.09,3156.68,242.89z"/>
	</g>
	<g>
	</g>
	<g>
	</g>
	<g>
	</g>
	<g>
	</g>
	<g>
	</g>
</g>
</svg>
