<svg xmlns="http://www.w3.org/2000/svg" xmlns:xlink="http://www.w3.org/1999/xlink" version="1.1" style="enable-background:new 0 0 3454.48 841.69;" xml:space="preserve" width="690.0000001490116" height="803"><rect id="backgroundrect" width="100%" height="100%" x="0" y="0" fill="none" stroke="none" class="" style=""/>
<style type="text/css">
	.st0{display:none;}
	.st1{display:inline;fill:#FFFFFF;}
	.st2{fill:#131313;}
	.st3{fill:#FFB93D;}
	.st4{fill:none;}
</style>




<g class="currentLayer" style=""><title>Layer 1</title><g id="Layer_4" class="st0">
	<ellipse class="st1" cx="338.9920425415039" cy="295.989990234375" rx="228.7899932861328" ry="244.24000549316406" id="svg_1"/>
</g><g id="Layer_3" class="">
	<g id="svg_2">
		<path class="st2" d="M339.75203521728514,101.42000122070313 L339.75203521728514,101.42000122070313 c-13.95,0 -25.26,-11.31 -25.26,-25.26 V44.32000122070312 c0,-13.95 11.31,-25.26 25.26,-25.26 h0 c13.95,0 25.26,11.31 25.26,25.26 v31.84 C365.01203521728513,90.11000122070313 353.70203521728513,101.42000122070313 339.75203521728514,101.42000122070313 z" id="svg_3"/>
		
			<rect x="334.4484948791503" y="97.03478275351296" transform="matrix(0.7668,0.6419,-0.6419,0.7668,160.5048,-219.6947) " class="st2" width="13.479999542236328" height="39.90999984741211" id="svg_4"/>
	</g>
	<rect x="329.6420364379883" y="315.2699890136719" class="st2" width="19.56999969482422" height="102.73999786376953" id="svg_5"/>
	<g id="svg_6">
		<rect x="329.6420364379883" y="510.7699890136719" class="st2" width="16.18000030517578" height="178.52000427246094" id="svg_7"/>
		<rect x="334.6520462036133" y="668.2799987792969" class="st2" width="7.550000190734863" height="35.72999954223633" id="svg_8"/>
		<rect x="337.2320327758789" y="704.0099792480469" class="st2" width="3.3399999141693115" height="8.34000015258789" id="svg_9"/>
		<rect x="337.2320327758789" y="712.3500061035156" class="st2" width="4.96999979019165" height="4.96999979019165" id="svg_10"/>
	</g>
	<g id="svg_11">
		<path class="st2" d="M342.05203521728515,780.0800012207031 h-6.29 c-3.1,0 -5.61,-2.51 -5.61,-5.61 v-9.76 c0,-3.1 2.51,-5.61 5.61,-5.61 h6.29 c3.1,0 5.61,2.51 5.61,5.61 v9.76 C347.66203521728517,777.5700012207031 345.1520352172852,780.0800012207031 342.05203521728515,780.0800012207031 z" id="svg_12"/>
		<rect x="337.09204864501953" y="780.0799865722656" class="st2" width="4.239999771118164" height="8.899999618530273" id="svg_13"/>
		<path class="st2" d="M339.75203521728514,792.4300012207032 L339.75203521728514,792.4300012207032 c-0.47000000000000003,0 -0.8400000000000001,-0.38000000000000006 -0.8400000000000001,-0.8400000000000001 v-2.77 c0,-0.47000000000000003 0.38000000000000006,-0.8400000000000001 0.8400000000000001,-0.8400000000000001 h0 c0.47000000000000003,0 0.8400000000000001,0.38000000000000006 0.8400000000000001,0.8400000000000001 v2.77 C340.5920352172852,792.0600012207032 340.2120352172852,792.4300012207032 339.75203521728514,792.4300012207032 z" id="svg_14"/>
	</g>
</g><g id="Layer_1" class="">
	<path class="st2" d="M655.9020352172852,427.52000122070314 c0,0 43.13,-71.21 23.4,-139.19 c-25.38,-87.43 -54.33,-105.85 -54.33,-105.85 c50.88,-182.47 -67.14,-144.12 -91.24,-130.71 C479.3520352172851,8.770001220703126 365.0220352172852,9.790001220703125 339.16203521728517,17.980001220703123 c-0.05000000000000001,-0.020000000000000004 -0.12000000000000001,-0.04000000000000001 -0.18000000000000002,-0.06000000000000001 v91.81 c0.06000000000000001,-0.020000000000000004 0.12000000000000001,-0.04000000000000001 0.18000000000000002,-0.07 c0.6600000000000001,0.25 1.27,0.48000000000000004 1.8,0.6800000000000002 c9.48,-3.63 39.98,-15.18 64.03,-23.07 h41.9 c25.95,21.42 84.48,81.17 84.48,96 c0,17.95 -11.96,87.74 -27.91,95.71 c-15.95,7.97 -41.88,13.96 -35.9,31.9 c5.98,17.95 25.93,41.88 7.98,67.8 c-17.94,25.92 -29.91,55.83 -55.83,43.87 c-25.92,-11.96 -65.81,-21.93 -67.8,-31.9 c-1.99,-9.97 3.99,-37.89 3.99,-37.89 s33.9,-7.97 41.88,-21.94 c6.43,-11.26 -39,-16.03 -56.84,-17.45 c-0.54,0.04000000000000001 -1.17,0.1 -1.78,0.15000000000000002 c-0.06000000000000001,0 -0.12000000000000001,-0.010000000000000002 -0.18000000000000002,-0.010000000000000002 v106.94 c0.06000000000000001,0 0.12000000000000001,0 0.18000000000000002,0 c0.09000000000000002,0 0.17,0 0.25,0 v0 c0.8400000000000001,-0.010000000000000002 1.6900000000000002,-0.020000000000000004 2.54,-0.020000000000000004 v-0.010000000000000002 c0.7300000000000001,0 1.59,0 2.38,0 c1.2,0 2.41,-0.010000000000000002 3.6,0 v0.020000000000000004 c12.74,0.13 29.66,0.93 35.23,4.1 c9.3,5.3100000000000005 53.18,14.620000000000001 51.85,23.93 c-1.34,9.3 -29.24,59.82 -47.86,61.15 c-12.99,0.93 -32.36,-0.08000000000000002 -42.92,-0.78 c-1.6600000000000001,0.07 -3.36,0.14 -5.06,0.21000000000000002 c-0.06000000000000001,0 -0.12000000000000001,0 -0.18000000000000002,-0.010000000000000002 v243.37 c0.06000000000000001,-0.09000000000000002 0.12000000000000001,-0.18000000000000002 0.18000000000000002,-0.27 c0.09000000000000002,0.13 0.17,0.25 0.25,0.38000000000000006 v-0.7600000000000001 c2.42,-3.75 4.85,-7.49 7.33,-11.12 c26.46,-38.68 57.6,-70.76 112.83,-92.86 c36.5,-14.6 65.09,-35.05 87.35,-56.92 c23.11,34.21 15.41,89.3 15.41,89.3 c145.63,-187.73 33.92,-338.33 33.92,-338.33 C654.7420352172852,362.01000122070315 655.9020352172852,427.52000122070314 655.9020352172852,427.52000122070314 z" id="svg_15"/>
	<path class="st2" d="M451.7120352172852,577.8200012207031 L340.00203521728514,679.2100012207031 l-2.77,-2.51 v112.91 c0.13,0.23 0.30000000000000004,0.5 0.43000000000000005,0.7200000000000001 c0.92,1.58 1.6900000000000002,2.95 2.34,4.13 c0.6500000000000001,-1.17 1.4300000000000002,-2.55 2.34,-4.13 c12.63,-21.74 50.92,-79.23 114.63,-103.74 c91.24,-35.09 98.25,-103.52 98.25,-103.52 L451.7120352172852,577.8200012207031 z" id="svg_16"/>
	<path class="st2" d="M23.66203521728516,427.52000122070314 c0,0 -39.67,-68.42 -16.28,-153.81 c15.2,-67.25 47.21,-91.24 47.21,-91.24 C3.7120352172851554,0.0000012207031261368684 121.73203521728516,38.35000122070313 145.82203521728516,51.76000122070313 c54.55,-42.99 168.71,-41.96 194.57,-33.78 c0.05000000000000001,-0.020000000000000004 0.12000000000000001,-0.04000000000000001 0.18000000000000002,-0.06000000000000001 v91.81 c-0.06000000000000001,-0.020000000000000004 -0.12000000000000001,-0.04000000000000001 -0.18000000000000002,-0.07 c-0.6600000000000001,0.25 -1.28,0.48000000000000004 -1.8,0.6800000000000002 c-9.48,-3.63 -39.98,-15.18 -64.03,-23.07 h-41.9 c-25.95,21.42 -84.48,81.17 -84.48,96 c0,17.95 11.96,87.74 27.91,95.71 c15.96,7.97 41.88,13.96 35.9,31.9 c-5.98,17.95 -25.93,41.88 -7.98,67.8 c17.94,25.92 29.91,55.83 55.83,43.87 c25.92,-11.96 65.81,-21.93 67.8,-31.9 c1.99,-9.97 -3.99,-37.89 -3.99,-37.89 s-33.9,-7.97 -41.88,-21.94 c-6.43,-11.26 39,-16.03 56.84,-17.45 c0.54,0.04000000000000001 1.17,0.1 1.78,0.15000000000000002 c0.06000000000000001,0 0.12000000000000001,-0.010000000000000002 0.18000000000000002,-0.010000000000000002 v106.94 c-0.06000000000000001,0 -0.12000000000000001,0 -0.18000000000000002,0 c-0.09000000000000002,0 -0.17,0 -0.25,0 v0 c-0.8400000000000001,-0.010000000000000002 -1.6900000000000002,-0.020000000000000004 -2.54,-0.020000000000000004 v-0.010000000000000002 c-0.7300000000000001,0 -1.59,0 -2.38,0 c-1.2,0 -2.41,-0.010000000000000002 -3.6,0 v0.020000000000000004 c-12.74,0.13 -29.66,0.93 -35.23,4.1 c-9.3,5.3100000000000005 -53.18,14.620000000000001 -51.85,23.93 c1.34,9.3 29.24,59.82 47.86,61.15 c12.99,0.93 32.36,-0.08000000000000002 42.92,-0.78 c1.6600000000000001,0.07 3.36,0.14 5.06,0.21000000000000002 c0.06000000000000001,0 0.12000000000000001,0 0.18000000000000002,-0.010000000000000002 v243.37 c-0.06000000000000001,-0.09000000000000002 -0.12000000000000001,-0.18000000000000002 -0.18000000000000002,-0.27 c-0.09000000000000002,0.13 -0.17,0.25 -0.25,0.38000000000000006 v-0.7600000000000001 c-2.42,-3.75 -4.85,-7.49 -7.33,-11.12 c-26.46,-38.68 -57.6,-70.76 -112.83,-92.86 c-36.49,-14.6 -65.09,-35.05 -87.35,-56.92 c-23.11,34.21 -15.41,89.3 -15.41,89.3 C-28.397964782714844,492.44000122070315 83.31203521728516,341.84000122070313 83.31203521728516,341.84000122070313 C24.822035217285155,362.01000122070315 23.66203521728516,427.52000122070314 23.66203521728516,427.52000122070314 z" id="svg_17"/>
	<path class="st2" d="M227.85203521728516,577.8200012207031 l111.71,101.39 l2.77,-2.51 v112.91 c-0.13,0.23 -0.30000000000000004,0.5 -0.43000000000000005,0.7200000000000001 c-0.92,1.58 -1.6900000000000002,2.95 -2.34,4.13 c-0.6500000000000001,-1.17 -1.4300000000000002,-2.55 -2.34,-4.13 c-12.63,-21.74 -50.91,-79.23 -114.63,-103.74 c-91.24,-35.09 -98.25,-103.52 -98.25,-103.52 L227.85203521728516,577.8200012207031 z" id="svg_18"/>
	<polygon class="st2" points="486.02201080322266,207.6300048828125 408.21204376220703,207.6300048828125 390.2620315551758,214.61000061035156 390.2620315551758,268.45001220703125 442.1020278930664,346.2099914550781 447.1020278930664,398.05999755859375 454.08203887939453,344.2200012207031 408.21204376220703,265.4599914550781 417.18204498291016,245.510009765625 442.6420364379883,242.70999145507812 " id="svg_19"/>
	<polygon class="st2" points="193.75203704833984,207.6300048828125 271.55204010009766,207.6300048828125 289.5020217895508,214.61000061035156 289.5020217895508,268.45001220703125 237.66202545166016,346.2099914550781 232.67203521728516,398.05999755859375 225.69202423095703,344.2200012207031 271.55204010009766,265.4599914550781 262.58203887939453,245.510009765625 237.13202667236328,242.70999145507812 " id="svg_20"/>
	<path class="st2" d="M145.82203521728516,51.76000122070313 c0,0 51.05,-51.76 96.66,-51.76 s97.91,17.98 97.91,17.98 " id="svg_21"/>
	<path class="st2" d="M535.1520352172852,51.76000122070313 c0,0 -51.05,-51.76 -96.66,-51.76 s-97.91,17.98 -97.91,17.98 " id="svg_22"/>
	<polygon class="st3" points="461.6420364379883,217.55999755859375 412.5220413208008,217.55999755859375 403.7420425415039,232.47000122070312 416.03202056884766,235.98001098632812 443.80204010009766,232.1800079345703 " id="svg_23"/>
	<polygon class="st3" points="218.12203216552734,217.55999755859375 267.2520217895508,217.55999755859375 276.0220413208008,232.47000122070312 263.7420425415039,235.98001098632812 235.96204376220703,232.1800079345703 " id="svg_24"/>
	<path class="st3" d="M87.94203521728515,170.19000122070312 c0,0 -93.58,69.01 -73.69,198.85 c0,0 -5.85,-64.33 36.26,-118.14 c0,0 -19.88,40.94 -18.71,92.4 c0,0 14.04,-92.4 90.06,-153.23 c0,0 -33.92,14.04 -54.97,43.28 c0,0 8.19,-43.28 77.2,-94.74 c0,0 -50.31,22.22 -86.56,84.22 C57.52203521728515,222.82000122070312 68.05203521728515,192.4200012207031 87.94203521728515,170.19000122070312 z" id="svg_25"/>
	<path class="st3" d="M125.37203521728514,318.7400012207031 c0,0 -138.02,100.59 -28.07,312.3 c0,0 -43.27,-100.59 -16.37,-159.08 c0,0 -4.68,59.65 19.88,108.78 c0,0 -32.75,-104.1 65.5,-215.22 c0,0 -51.46,24.56 -71.35,92.4 c0,0 -2.34,-64.33 52.64,-123.98 c0,0 -54.98,30.41 -71.35,113.46 C76.24203521728515,447.40000122070313 71.56203521728516,378.39000122070314 125.37203521728514,318.7400012207031 z" id="svg_26"/>
	<path class="st3" d="M589.8820352172852,170.19000122070312 c0,0 93.58,69.01 73.69,198.85 c0,0 5.85,-64.33 -36.26,-118.14 c0,0 19.88,40.94 18.71,92.4 c0,0 -14.04,-92.4 -90.06,-153.23 c0,0 33.92,14.04 54.97,43.28 c0,0 -8.19,-43.28 -77.2,-94.74 c0,0 50.31,22.22 86.56,84.22 C620.3020352172852,222.82000122070312 609.7720352172852,192.4200012207031 589.8820352172852,170.19000122070312 z" id="svg_27"/>
	<path class="st3" d="M552.4520352172851,318.7400012207031 c0,0 138.02,100.59 28.07,312.3 c0,0 43.27,-100.59 16.37,-159.08 c0,0 4.68,59.65 -19.88,108.78 c0,0 32.75,-104.1 -65.5,-215.22 c0,0 51.46,24.56 71.35,92.4 c0,0 2.34,-64.33 -52.64,-123.98 c0,0 54.98,30.41 71.35,113.46 C601.5820352172851,447.40000122070313 606.2620352172852,378.39000122070314 552.4520352172851,318.7400012207031 z" id="svg_28"/>
	<path class="st3" d="M512.6820352172851,469.63000122070315 c29.24,140.36 -92.4,194.17 -92.4,194.17 c102.93,-66.67 71.35,-143.87 71.35,-143.87 c9.36,67.84 -52.64,107.61 -52.64,107.61 c59.65,-59.65 38.6,-145.04 38.6,-145.04 s7.02,78.37 -78.36,149.72 c-36.76,30.72 -53.33,60.99 -60.32,85.53 c-6.98,-24.53 -23.56,-54.8 -60.32,-85.53 c-85.38,-71.35 -78.36,-149.72 -78.36,-149.72 s-21.05,85.39 38.6,145.04 c0,0 -61.99,-39.77 -52.64,-107.61 c0,0 -31.59,77.2 71.35,143.87 c0,0 -121.64,-53.8 -92.4,-194.17 c0,0 -47.96,118.14 71.35,196.51 c61.67,40.51 87.36,67.55 97.83,84.25 c2.07,3.3 3.56,6.21 4.6,8.72 c1.03,-2.51 2.5300000000000002,-5.42 4.6,-8.72 c10.47,-16.7 36.16,-43.74 97.83,-84.25 C560.6420352172852,587.7700012207031 512.6820352172851,469.63000122070315 512.6820352172851,469.63000122070315 z" id="svg_29"/>
</g><g id="Layer_2" class="">
	<g id="svg_30">
		<rect x="837.5220108032227" y="184.05999755859375" class="st4" width="2492.219970703125" height="416" id="svg_31"/>
		<path class="st2" d="M1039.1320352172852,220.8600012207031 l-15.6,35.6 c-10.94,-4 -21.8,-7.2 -32.6,-9.6 c-10.8,-2.4 -21.14,-3.6 -31,-3.6 c-16.8,0 -30.2,3.47 -40.2,10.4 c-10,6.94 -15,15.74 -15,26.4 c0,9.07 3.6,16.34 10.8,21.8 c7.2,5.47 16.13,10.4 26.8,14.8 c10.66,4.4 22.26,8.8 34.8,13.2 c12.53,4.4 24.13,10.07 34.8,17 c10.66,6.94 19.6,15.67 26.8,26.2 c7.2,10.54 10.8,24.07 10.8,40.6 c0,12.8 -2.34,24.34 -7,34.6 c-4.67,10.27 -11.6,19.14 -20.8,26.6 c-9.2,7.47 -20.67,13.2 -34.4,17.2 c-13.74,4 -29.8,6 -48.2,6 c-11.74,0 -22.34,-0.8 -31.8,-2.4 c-9.47,-1.6 -18,-3.66 -25.6,-6.2 c-7.6,-2.5300000000000002 -14.27,-5.26 -20,-8.2 c-5.74,-2.93 -10.6,-5.6 -14.6,-8 l19.2,-38 c10.66,6.14 22.53,11.07 35.6,14.8 c13.06,3.74 24.93,5.6 35.6,5.6 c5.33,0 11.93,-0.6600000000000001 19.8,-2 c7.86,-1.33 15.4,-3.66 22.6,-7 c7.2,-3.33 13.4,-7.8 18.6,-13.4 c5.2,-5.6 7.8,-12.66 7.8,-21.2 c0,-7.73 -2.07,-14.33 -6.2,-19.8 c-4.14,-5.46 -9.6,-10.26 -16.4,-14.4 c-6.8,-4.13 -14.54,-7.86 -23.2,-11.2 c-8.67,-3.33 -17.54,-6.8 -26.6,-10.4 c-9.07,-3.6 -17.94,-7.4 -26.6,-11.4 c-8.67,-4 -16.4,-8.86 -23.2,-14.6 c-6.8,-5.73 -12.27,-12.4 -16.4,-20 c-4.14,-7.6 -6.2,-16.73 -6.2,-27.4 c0,-9.86 2,-19.6 6,-29.2 c4,-9.6 10,-18.13 18,-25.6 c8,-7.46 17.93,-13.46 29.8,-18 c11.86,-4.53 25.66,-6.8 41.4,-6.8 c9.6,0 19,0.8 28.2,2.4 c9.2,1.6 17.53,3.4 25,5.4 c7.46,2 13.8,3.94 19,5.8 C1034.1320352172852,218.73000122070312 1037.532035217285,220.06000122070313 1039.1320352172852,220.8600012207031 z" id="svg_32"/>
		<path class="st2" d="M1099.1220352172852,204.8600012207031 h43.6 v290 h-43.6 V204.8600012207031 z" id="svg_33"/>
		<path class="st2" d="M1213.9220352172852,192.06000122070313 c2.4,3.74 7.4,10.870000000000001 15,21.4 c7.6,10.54 16.4,22.74 26.4,36.6 c10,13.870000000000001 20.6,28.6 31.8,44.2 s21.73,30.27 31.6,44 c9.86,13.74 18.46,25.67 25.8,35.8 c7.33,10.14 12.2,16.8 14.6,20 c0.8,-1.33 3.33,-4.93 7.6,-10.8 c4.26,-5.86 9.53,-13.2 15.8,-22 c6.26,-8.8 13.4,-18.73 21.4,-29.8 c8,-11.06 16.2,-22.4 24.6,-34 c8.4,-11.6 16.66,-23.13 24.8,-34.6 c8.13,-11.46 15.66,-21.93 22.6,-31.4 c6.93,-9.46 12.86,-17.73 17.8,-24.8 c4.93,-7.06 8.46,-11.93 10.6,-14.6 v302.8 h-46.4 v-162.4 c0,-2.13 0.2,-4.4 0.6000000000000001,-6.8 c0.4,-2.4 0.6000000000000001,-4.13 0.6000000000000001,-5.2 c-2.4,3.2 -6.2,8.6 -11.4,16.2 c-5.2,7.6 -11.2,16.27 -18,26 c-6.8,9.74 -13.94,20 -21.4,30.8 c-7.47,10.8 -14.54,21 -21.2,30.6 c-6.67,9.6 -12.54,18.07 -17.6,25.4 c-5.07,7.34 -8.54,12.47 -10.4,15.4 c-1.87,-2.4 -5.54,-7.4 -11,-15 c-5.47,-7.6 -11.870000000000001,-16.46 -19.2,-26.6 c-7.34,-10.13 -15.07,-20.93 -23.2,-32.4 c-8.14,-11.46 -15.67,-22.13 -22.6,-32 c-6.94,-9.86 -12.94,-18.33 -18,-25.4 c-5.07,-7.06 -8,-11.4 -8.8,-13 c0,1.07 0.2,2.8 0.6000000000000001,5.2 c0.4,2.4 0.6000000000000001,4.67 0.6000000000000001,6.8 v162.4 h-43.6 V192.06000122070313 z" id="svg_34"/>
		<path class="st2" d="M1575.512035217285,494.8600012207031 v-290 h43.6 v123.2 h145.2 v-123.2 h44 c0,3.47 0,9.94 0,19.4 c0,9.47 0,20.74 0,33.8 c0,13.07 0,27.54 0,43.4 c0,15.870000000000001 -0.07,32 -0.2,48.4 c-0.14,16.4 -0.2,32.54 -0.2,48.4 c0,15.870000000000001 0,30.34 0,43.4 c0,13.07 0,24.34 0,33.8 c0,9.47 0,15.94 0,19.4 h-43.6 v-125.2 h-145.2 v125.2 H1575.512035217285 z" id="svg_35"/>
		<path class="st2" d="M2059.112035217285,494.8600012207031 c-1.34,-2.93 -3.2,-7.2 -5.6,-12.8 c-2.4,-5.6 -5.14,-12.06 -8.2,-19.4 c-3.07,-7.33 -6.4,-15.33 -10,-24 c-3.6,-8.66 -7.27,-17.66 -11,-27 h-102.4 l-34.4,83.2 h-43.2 l129.2,-303.6 c1.6,3.74 4.46,10.54 8.6,20.4 c4.13,9.870000000000001 9.06,21.67 14.8,35.4 c5.73,13.74 12.13,28.94 19.2,45.6 c7.06,16.67 14.26,33.54 21.6,50.6 c7.33,17.07 14.53,33.87 21.6,50.4 c7.06,16.54 13.53,31.74 19.4,45.6 c5.86,13.870000000000001 10.86,25.67 15,35.4 c4.13,9.74 7,16.47 8.6,20.2 H2059.112035217285 zM1937.1120352172852,374.8600012207031 h72.4 c-3.74,-8.8 -7.27,-17.26 -10.6,-25.4 c-3.34,-8.13 -6.4,-15.6 -9.2,-22.4 c-2.8,-6.8 -5.27,-12.73 -7.4,-17.8 c-2.14,-5.06 -3.74,-9.06 -4.8,-12 c-0.27,-0.53 -0.8700000000000001,-2.4 -1.8,-5.6 c-0.9400000000000001,-3.2 -1.6700000000000002,-6.13 -2.2,-8.8 c-0.54,2.67 -1.34,5.6 -2.4,8.8 c-1.07,3.2 -1.7400000000000002,5.07 -2,5.6 L1937.1120352172852,374.8600012207031 z" id="svg_36"/>
		<path class="st2" d="M2230.3020352172853,494.8600012207031 v-290 h44 v248.4 h144 v41.6 H2230.3020352172853 z" id="svg_37"/>
		<path class="st2" d="M2638.3020352172853,494.8600012207031 c-1.34,-2.93 -3.2,-7.2 -5.6,-12.8 c-2.4,-5.6 -5.14,-12.06 -8.2,-19.4 c-3.07,-7.33 -6.4,-15.33 -10,-24 c-3.6,-8.66 -7.27,-17.66 -11,-27 h-102.4 l-34.4,83.2 h-43.2 l129.2,-303.6 c1.6,3.74 4.46,10.54 8.6,20.4 c4.13,9.870000000000001 9.06,21.67 14.8,35.4 c5.73,13.74 12.13,28.94 19.2,45.6 c7.06,16.67 14.26,33.54 21.6,50.6 c7.33,17.07 14.53,33.87 21.6,50.4 c7.06,16.54 13.53,31.74 19.4,45.6 c5.86,13.870000000000001 10.86,25.67 15,35.4 c4.13,9.74 7,16.47 8.6,20.2 H2638.3020352172853 zM2516.3020352172853,374.8600012207031 h72.4 c-3.74,-8.8 -7.27,-17.26 -10.6,-25.4 c-3.34,-8.13 -6.4,-15.6 -9.2,-22.4 c-2.8,-6.8 -5.27,-12.73 -7.4,-17.8 c-2.14,-5.06 -3.74,-9.06 -4.8,-12 c-0.27,-0.53 -0.8700000000000001,-2.4 -1.8,-5.6 c-0.9400000000000001,-3.2 -1.6700000000000002,-6.13 -2.2,-8.8 c-0.54,2.67 -1.34,5.6 -2.4,8.8 c-1.07,3.2 -1.7400000000000002,5.07 -2,5.6 L2516.3020352172853,374.8600012207031 z" id="svg_38"/>
		<path class="st2" d="M2717.502035217285,494.8600012207031 v-290 h76.8 c14.13,0 26.93,1.4 38.4,4.2 c11.46,2.8 21.2,7.2 29.2,13.2 s14.2,13.74 18.6,23.2 c4.4,9.47 6.6,21 6.6,34.6 c0,7.47 -0.7400000000000001,14.8 -2.2,22 c-1.47,7.2 -3.87,13.8 -7.2,19.8 c-3.34,6 -7.74,11.27 -13.2,15.8 c-5.47,4.54 -12.2,8 -20.2,10.4 c6.93,1.34 13.8,3.6 20.6,6.8 s12.86,7.54 18.2,13 c5.33,5.47 9.66,12.2 13,20.2 c3.33,8 5,17.47 5,28.4 c0,13.870000000000001 -2.67,25.74 -8,35.6 c-5.34,9.870000000000001 -12.4,18 -21.2,24.4 c-8.8,6.4 -18.94,11.07 -30.4,14 c-11.47,2.94 -23.34,4.4 -35.6,4.4 H2717.502035217285 zM2761.502035217285,244.46000122070313 v85.6 h39.2 c14.4,0 25.2,-4.26 32.4,-12.8 c7.2,-8.53 10.8,-18.93 10.8,-31.2 c0,-14.4 -4.34,-24.93 -13,-31.6 c-8.67,-6.66 -20.2,-10 -34.6,-10 H2761.502035217285 zM2761.502035217285,367.26000122070315 v88 h40.8 c7.73,0 15,-0.93 21.8,-2.8 c6.8,-1.86 12.73,-4.6 17.8,-8.2 c5.06,-3.6 9.06,-8.2 12,-13.8 c2.93,-5.6 4.4,-12.13 4.4,-19.6 c0,-8.26 -1.7400000000000002,-15.13 -5.2,-20.6 c-3.47,-5.46 -8.07,-9.93 -13.8,-13.4 c-5.74,-3.46 -12.27,-5.93 -19.6,-7.4 c-7.34,-1.46 -14.870000000000001,-2.2 -22.6,-2.2 H2761.502035217285 z" id="svg_39"/>
		<path class="st2" d="M3121.102035217285,220.8600012207031 l-15.6,35.6 c-10.94,-4 -21.8,-7.2 -32.6,-9.6 c-10.8,-2.4 -21.14,-3.6 -31,-3.6 c-16.8,0 -30.2,3.47 -40.2,10.4 c-10,6.94 -15,15.74 -15,26.4 c0,9.07 3.6,16.34 10.8,21.8 c7.2,5.47 16.13,10.4 26.8,14.8 c10.66,4.4 22.26,8.8 34.8,13.2 c12.53,4.4 24.13,10.07 34.8,17 c10.66,6.94 19.6,15.67 26.8,26.2 c7.2,10.54 10.8,24.07 10.8,40.6 c0,12.8 -2.34,24.34 -7,34.6 c-4.67,10.27 -11.6,19.14 -20.8,26.6 c-9.2,7.47 -20.67,13.2 -34.4,17.2 c-13.74,4 -29.8,6 -48.2,6 c-11.74,0 -22.34,-0.8 -31.8,-2.4 c-9.47,-1.6 -18,-3.66 -25.6,-6.2 c-7.6,-2.5300000000000002 -14.27,-5.26 -20,-8.2 c-5.74,-2.93 -10.6,-5.6 -14.6,-8 l19.2,-38 c10.66,6.14 22.53,11.07 35.6,14.8 c13.06,3.74 24.93,5.6 35.6,5.6 c5.33,0 11.93,-0.6600000000000001 19.8,-2 c7.86,-1.33 15.4,-3.66 22.6,-7 c7.2,-3.33 13.4,-7.8 18.6,-13.4 c5.2,-5.6 7.8,-12.66 7.8,-21.2 c0,-7.73 -2.07,-14.33 -6.2,-19.8 c-4.14,-5.46 -9.6,-10.26 -16.4,-14.4 c-6.8,-4.13 -14.54,-7.86 -23.2,-11.2 c-8.67,-3.33 -17.54,-6.8 -26.6,-10.4 c-9.07,-3.6 -17.94,-7.4 -26.6,-11.4 c-8.67,-4 -16.4,-8.86 -23.2,-14.6 c-6.8,-5.73 -12.27,-12.4 -16.4,-20 c-4.14,-7.6 -6.2,-16.73 -6.2,-27.4 c0,-9.86 2,-19.6 6,-29.2 c4,-9.6 10,-18.13 18,-25.6 c8,-7.46 17.93,-13.46 29.8,-18 c11.86,-4.53 25.66,-6.8 41.4,-6.8 c9.6,0 19,0.8 28.2,2.4 c9.2,1.6 17.53,3.4 25,5.4 c7.46,2 13.8,3.94 19,5.8 C3116.102035217285,218.73000122070312 3119.502035217285,220.06000122070313 3121.102035217285,220.8600012207031 z" id="svg_40"/>
	</g>
	<g id="svg_41">
	</g>
	<g id="svg_42">
	</g>
	<g id="svg_43">
	</g>
	<g id="svg_44">
	</g>
	<g id="svg_45">
	</g>
</g></g></svg>